<svg width="333" height="124" viewBox="0 0 333 124" fill="none" xmlns="http://www.w3.org/2000/svg">
<g opacity="0.5">
<path d="M138.576 115.667H147.793V123.333H138.576V115.667Z" fill="#9676DD"/>
<path d="M147.793 115.667H157.01V123.333H147.793V115.667Z" fill="#9676DD"/>
<path d="M157.012 115.667H166.229V123.333H157.012V115.667Z" fill="#9676DD"/>
<path d="M212.311 115.667H221.527V123.333H212.311V115.667Z" fill="#9676DD"/>
<path d="M221.528 115.667H230.744V123.333H221.528V115.667Z" fill="#9676DD"/>
<path d="M230.742 115.667H239.959V123.333H230.742V115.667Z" fill="#9676DD"/>
<path d="M239.957 115.667H249.174V123.333H239.957V115.667Z" fill="#9676DD"/>
<path d="M249.174 115.667H258.391V123.333H249.174V115.667Z" fill="#9676DD"/>
<path d="M258.391 115.667H267.607V123.333H258.391V115.667Z" fill="#9676DD"/>
<path d="M267.61 115.667H276.826V123.333H267.61V115.667Z" fill="#9676DD"/>
<path d="M276.826 115.667H286.043V123.333H276.826V115.667Z" fill="#9676DD"/>
<path d="M286.043 115.667H295.26V123.333H286.043V115.667Z" fill="#9676DD"/>
<path d="M295.258 115.667H304.475V123.333H295.258V115.667Z" fill="#9676DD"/>
<path d="M304.475 115.667H313.691V123.333H304.475V115.667Z" fill="#9676DD"/>
<path d="M313.692 115.667H322.908V123.333H313.692V115.667Z" fill="#9676DD"/>
<path d="M322.908 115.667H332.125V123.333H322.908V115.667Z" fill="#9676DD"/>
<path d="M129.36 108H138.576V115.667H129.36V108Z" fill="#9676DD"/>
<path d="M138.576 108H147.793V115.667H138.576V108Z" fill="#9676DD"/>
<path d="M147.793 108H157.01V115.667H147.793V108Z" fill="#9676DD"/>
<path d="M203.094 108H212.311V115.667H203.094V108Z" fill="#9676DD"/>
<path d="M212.311 108H221.527V115.667H212.311V108Z" fill="#9676DD"/>
<path d="M221.528 108H230.744V115.667H221.528V108Z" fill="#9676DD"/>
<path d="M230.742 108H239.959V115.667H230.742V108Z" fill="#9676DD"/>
<path d="M239.957 108H249.174V115.667H239.957V108Z" fill="#9676DD"/>
<path d="M249.174 108H258.391V115.667H249.174V108Z" fill="#9676DD"/>
<path d="M258.391 108H267.607V115.667H258.391V108Z" fill="#9676DD"/>
<path d="M267.61 108H276.826V115.667H267.61V108Z" fill="#9676DD"/>
<path d="M276.826 108H286.043V115.667H276.826V108Z" fill="#9676DD"/>
<path d="M286.043 108H295.26V115.667H286.043V108Z" fill="#9676DD"/>
<path d="M295.258 108H304.475V115.667H295.258V108Z" fill="#9676DD"/>
<path d="M304.475 108H313.691V115.667H304.475V108Z" fill="#9676DD"/>
<path d="M313.692 108H322.908V115.667H313.692V108Z" fill="#9676DD"/>
<path d="M120.143 100.333H129.359V108H120.143V100.333Z" fill="#9676DD"/>
<path d="M129.36 100.333H138.576V108H129.36V100.333Z" fill="#9676DD"/>
<path d="M138.576 100.333H147.793V108H138.576V100.333Z" fill="#9676DD"/>
<path d="M193.877 100.333H203.094V108H193.877V100.333Z" fill="#9676DD"/>
<path d="M203.094 100.333H212.311V108H203.094V100.333Z" fill="#9676DD"/>
<path d="M212.311 100.333H221.527V108H212.311V100.333Z" fill="#9676DD"/>
<path d="M221.528 100.333H230.744V108H221.528V100.333Z" fill="#9676DD"/>
<path d="M230.742 100.333H239.959V108H230.742V100.333Z" fill="#9676DD"/>
<path d="M239.957 100.333H249.174V108H239.957V100.333Z" fill="#9676DD"/>
<path d="M249.174 100.333H258.391V108H249.174V100.333Z" fill="#9676DD"/>
<path d="M258.391 100.333H267.607V108H258.391V100.333Z" fill="#9676DD"/>
<path d="M267.61 100.333H276.826V108H267.61V100.333Z" fill="#9676DD"/>
<path d="M276.826 100.333H286.043V108H276.826V100.333Z" fill="#9676DD"/>
<path d="M286.043 100.333H295.26V108H286.043V100.333Z" fill="#9676DD"/>
<path d="M295.258 100.333H304.475V108H295.258V100.333Z" fill="#9676DD"/>
<path d="M304.475 100.333H313.691V108H304.475V100.333Z" fill="#9676DD"/>
<path d="M110.928 92.6667H120.145V100.333H110.928V92.6667Z" fill="#9676DD"/>
<path d="M120.143 92.6667H129.359V100.333H120.143V92.6667Z" fill="#9676DD"/>
<path d="M129.36 92.6667H138.576V100.333H129.36V92.6667Z" fill="#9676DD"/>
<path d="M184.66 92.6667H193.877V100.333H184.66V92.6667Z" fill="#9676DD"/>
<path d="M193.877 92.6667H203.094V100.333H193.877V92.6667Z" fill="#9676DD"/>
<path d="M203.094 92.6667H212.311V100.333H203.094V92.6667Z" fill="#9676DD"/>
<path d="M212.311 92.6667H221.527V100.333H212.311V92.6667Z" fill="#9676DD"/>
<path d="M221.528 92.6667H230.744V100.333H221.528V92.6667Z" fill="#9676DD"/>
<path d="M230.742 92.6667H239.959V100.333H230.742V92.6667Z" fill="#9676DD"/>
<path d="M239.957 92.6667H249.174V100.333H239.957V92.6667Z" fill="#9676DD"/>
<path d="M249.174 92.6667H258.391V100.333H249.174V92.6667Z" fill="#9676DD"/>
<path d="M258.391 92.6667H267.607V100.333H258.391V92.6667Z" fill="#9676DD"/>
<path d="M267.61 92.6667H276.826V100.333H267.61V92.6667Z" fill="#9676DD"/>
<path d="M276.826 92.6667H286.043V100.333H276.826V92.6667Z" fill="#9676DD"/>
<path d="M286.043 92.6667H295.26V100.333H286.043V92.6667Z" fill="#9676DD"/>
<path d="M295.258 92.6667H304.475V100.333H295.258V92.6667Z" fill="#9676DD"/>
<path d="M101.711 85H110.928V92.6667H101.711V85Z" fill="#9676DD"/>
<path d="M110.928 85H120.145V92.6667H110.928V85Z" fill="#9676DD"/>
<path d="M120.143 85H129.359V92.6667H120.143V85Z" fill="#9676DD"/>
<path d="M175.446 85H184.662V92.6667H175.446V85Z" fill="#9676DD"/>
<path d="M184.66 85H193.877V92.6667H184.66V85Z" fill="#9676DD"/>
<path d="M193.877 85H203.094V92.6667H193.877V85Z" fill="#9676DD"/>
<path d="M203.094 85H212.311V92.6667H203.094V85Z" fill="#9676DD"/>
<path d="M212.311 85H221.527V92.6667H212.311V85Z" fill="#9676DD"/>
<path d="M221.528 85H230.744V92.6667H221.528V85Z" fill="#9676DD"/>
<path d="M230.742 85H239.959V92.6667H230.742V85Z" fill="#9676DD"/>
<path d="M239.957 85H249.174V92.6667H239.957V85Z" fill="#9676DD"/>
<path d="M249.174 85H258.391V92.6667H249.174V85Z" fill="#9676DD"/>
<path d="M258.391 85H267.607V92.6667H258.391V85Z" fill="#9676DD"/>
<path d="M267.61 85H276.826V92.6667H267.61V85Z" fill="#9676DD"/>
<path d="M276.826 85H286.043V92.6667H276.826V85Z" fill="#9676DD"/>
<path d="M286.043 85H295.26V92.6667H286.043V85Z" fill="#9676DD"/>
<path d="M92.4944 77.3333H101.711V84.9999H92.4944V77.3333Z" fill="#9676DD"/>
<path d="M101.711 77.3333H110.928V84.9999H101.711V77.3333Z" fill="#9676DD"/>
<path d="M110.928 77.3333H120.145V84.9999H110.928V77.3333Z" fill="#9676DD"/>
<path d="M166.229 77.3333H175.445V84.9999H166.229V77.3333Z" fill="#9676DD"/>
<path d="M175.446 77.3333H184.662V84.9999H175.446V77.3333Z" fill="#9676DD"/>
<path d="M184.66 77.3333H193.877V84.9999H184.66V77.3333Z" fill="#9676DD"/>
<path d="M193.877 77.3333H203.094V84.9999H193.877V77.3333Z" fill="#9676DD"/>
<path d="M203.094 77.3333H212.311V84.9999H203.094V77.3333Z" fill="#9676DD"/>
<path d="M212.311 77.3333H221.527V84.9999H212.311V77.3333Z" fill="#9676DD"/>
<path d="M221.528 77.3333H230.744V84.9999H221.528V77.3333Z" fill="#9676DD"/>
<path d="M230.742 77.3333H239.959V84.9999H230.742V77.3333Z" fill="#9676DD"/>
<path d="M239.957 77.3333H249.174V84.9999H239.957V77.3333Z" fill="#9676DD"/>
<path d="M249.174 77.3333H258.391V84.9999H249.174V77.3333Z" fill="#9676DD"/>
<path d="M258.391 77.3333H267.607V84.9999H258.391V77.3333Z" fill="#9676DD"/>
<path d="M267.61 77.3333H276.826V84.9999H267.61V77.3333Z" fill="#9676DD"/>
<path d="M276.826 77.3333H286.043V84.9999H276.826V77.3333Z" fill="#9676DD"/>
<path d="M83.2776 69.6665H92.4941V77.3332H83.2776V69.6665Z" fill="#9676DD"/>
<path d="M92.4944 69.6665H101.711V77.3332H92.4944V69.6665Z" fill="#9676DD"/>
<path d="M101.711 69.6665H110.928V77.3332H101.711V69.6665Z" fill="#9676DD"/>
<path d="M157.012 69.6665H166.229V77.3332H157.012V69.6665Z" fill="#9676DD"/>
<path d="M166.229 69.6665H175.445V77.3332H166.229V69.6665Z" fill="#9676DD"/>
<path d="M175.446 69.6665H184.662V77.3332H175.446V69.6665Z" fill="#9676DD"/>
<path d="M184.66 69.6665H193.877V77.3332H184.66V69.6665Z" fill="#9676DD"/>
<path d="M193.877 69.6665H203.094V77.3332H193.877V69.6665Z" fill="#9676DD"/>
<path d="M203.094 69.6665H212.311V77.3332H203.094V69.6665Z" fill="#9676DD"/>
<path d="M212.311 69.6665H221.527V77.3332H212.311V69.6665Z" fill="#9676DD"/>
<path d="M221.528 69.6665H230.744V77.3332H221.528V69.6665Z" fill="#9676DD"/>
<path d="M230.742 69.6665H239.959V77.3332H230.742V69.6665Z" fill="#9676DD"/>
<path d="M239.957 69.6665H249.174V77.3332H239.957V69.6665Z" fill="#9676DD"/>
<path d="M249.174 69.6665H258.391V77.3332H249.174V69.6665Z" fill="#9676DD"/>
<path d="M258.391 69.6665H267.607V77.3332H258.391V69.6665Z" fill="#9676DD"/>
<path d="M267.61 69.6665H276.826V77.3332H267.61V69.6665Z" fill="#9676DD"/>
<path d="M74.0608 62.0002H83.2773V69.6669H74.0608V62.0002Z" fill="#9676DD"/>
<path d="M83.2776 62.0002H92.4941V69.6669H83.2776V62.0002Z" fill="#9676DD"/>
<path d="M92.4944 62.0002H101.711V69.6669H92.4944V62.0002Z" fill="#9676DD"/>
<path d="M147.793 62.0002H157.01V69.6669H147.793V62.0002Z" fill="#9676DD"/>
<path d="M157.012 62.0002H166.229V69.6669H157.012V62.0002Z" fill="#9676DD"/>
<path d="M166.229 62.0002H175.445V69.6669H166.229V62.0002Z" fill="#9676DD"/>
<path d="M175.446 62.0002H184.662V69.6669H175.446V62.0002Z" fill="#9676DD"/>
<path d="M184.66 62.0002H193.877V69.6669H184.66V62.0002Z" fill="#9676DD"/>
<path d="M193.877 62.0002H203.094V69.6669H193.877V62.0002Z" fill="#9676DD"/>
<path d="M203.094 62.0002H212.311V69.6669H203.094V62.0002Z" fill="#9676DD"/>
<path d="M212.311 62.0002H221.527V69.6669H212.311V62.0002Z" fill="#9676DD"/>
<path d="M221.528 62.0002H230.744V69.6669H221.528V62.0002Z" fill="#9676DD"/>
<path d="M230.742 62.0002H239.959V69.6669H230.742V62.0002Z" fill="#9676DD"/>
<path d="M239.957 62.0002H249.174V69.6669H239.957V62.0002Z" fill="#9676DD"/>
<path d="M249.174 62.0002H258.391V69.6669H249.174V62.0002Z" fill="#9676DD"/>
<path d="M258.391 62.0002H267.607V69.6669H258.391V62.0002Z" fill="#9676DD"/>
<path d="M64.844 54.3335H74.0605V62.0002H64.844V54.3335Z" fill="#9676DD"/>
<path d="M74.0608 54.3335H83.2773V62.0002H74.0608V54.3335Z" fill="#9676DD"/>
<path d="M83.2776 54.3335H92.4941V62.0002H83.2776V54.3335Z" fill="#9676DD"/>
<path d="M138.576 54.3335H147.793V62.0002H138.576V54.3335Z" fill="#9676DD"/>
<path d="M147.793 54.3335H157.01V62.0002H147.793V54.3335Z" fill="#9676DD"/>
<path d="M157.012 54.3335H166.229V62.0002H157.012V54.3335Z" fill="#9676DD"/>
<path d="M166.229 54.3335H175.445V62.0002H166.229V54.3335Z" fill="#9676DD"/>
<path d="M175.446 54.3335H184.662V62.0002H175.446V54.3335Z" fill="#9676DD"/>
<path d="M184.66 54.3335H193.877V62.0002H184.66V54.3335Z" fill="#9676DD"/>
<path d="M193.877 54.3335H203.094V62.0002H193.877V54.3335Z" fill="#9676DD"/>
<path d="M203.094 54.3335H212.311V62.0002H203.094V54.3335Z" fill="#9676DD"/>
<path d="M212.311 54.3335H221.527V62.0002H212.311V54.3335Z" fill="#9676DD"/>
<path d="M221.528 54.3335H230.744V62.0002H221.528V54.3335Z" fill="#9676DD"/>
<path d="M230.742 54.3335H239.959V62.0002H230.742V54.3335Z" fill="#9676DD"/>
<path d="M239.957 54.3335H249.174V62.0002H239.957V54.3335Z" fill="#9676DD"/>
<path d="M249.174 54.3335H258.391V62.0002H249.174V54.3335Z" fill="#9676DD"/>
<path d="M55.6291 46.6667H64.8457V54.3334H55.6291V46.6667Z" fill="#9676DD"/>
<path d="M64.844 46.6667H74.0605V54.3334H64.844V46.6667Z" fill="#9676DD"/>
<path d="M74.0608 46.6667H83.2773V54.3334H74.0608V46.6667Z" fill="#9676DD"/>
<path d="M129.36 46.6667H138.576V54.3334H129.36V46.6667Z" fill="#9676DD"/>
<path d="M138.576 46.6667H147.793V54.3334H138.576V46.6667Z" fill="#9676DD"/>
<path d="M147.793 46.6667H157.01V54.3334H147.793V46.6667Z" fill="#9676DD"/>
<path d="M157.012 46.6667H166.229V54.3334H157.012V46.6667Z" fill="#9676DD"/>
<path d="M166.229 46.6667H175.445V54.3334H166.229V46.6667Z" fill="#9676DD"/>
<path d="M175.446 46.6667H184.662V54.3334H175.446V46.6667Z" fill="#9676DD"/>
<path d="M184.66 46.6667H193.877V54.3334H184.66V46.6667Z" fill="#9676DD"/>
<path d="M193.877 46.6667H203.094V54.3334H193.877V46.6667Z" fill="#9676DD"/>
<path d="M203.094 46.6667H212.311V54.3334H203.094V46.6667Z" fill="#9676DD"/>
<path d="M212.311 46.6667H221.527V54.3334H212.311V46.6667Z" fill="#9676DD"/>
<path d="M221.528 46.6667H230.744V54.3334H221.528V46.6667Z" fill="#9676DD"/>
<path d="M230.742 46.6667H239.959V54.3334H230.742V46.6667Z" fill="#9676DD"/>
<path d="M239.957 46.6667H249.174V54.3334H239.957V46.6667Z" fill="#9676DD"/>
<path d="M46.4124 39H55.6289V46.6667H46.4124V39Z" fill="#9676DD"/>
<path d="M55.6291 39H64.8457V46.6667H55.6291V39Z" fill="#9676DD"/>
<path d="M64.844 39H74.0605V46.6667H64.844V39Z" fill="#9676DD"/>
<path d="M120.143 39H129.359V46.6667H120.143V39Z" fill="#9676DD"/>
<path d="M129.36 39H138.576V46.6667H129.36V39Z" fill="#9676DD"/>
<path d="M138.576 39H147.793V46.6667H138.576V39Z" fill="#9676DD"/>
<path d="M147.793 39H157.01V46.6667H147.793V39Z" fill="#9676DD"/>
<path d="M157.012 39H166.229V46.6667H157.012V39Z" fill="#9676DD"/>
<path d="M166.229 39H175.445V46.6667H166.229V39Z" fill="#9676DD"/>
<path d="M175.446 39H184.662V46.6667H175.446V39Z" fill="#9676DD"/>
<path d="M184.66 39H193.877V46.6667H184.66V39Z" fill="#9676DD"/>
<path d="M193.877 39H203.094V46.6667H193.877V39Z" fill="#9676DD"/>
<path d="M203.094 39H212.311V46.6667H203.094V39Z" fill="#9676DD"/>
<path d="M212.311 39H221.527V46.6667H212.311V39Z" fill="#9676DD"/>
<path d="M221.528 39H230.744V46.6667H221.528V39Z" fill="#9676DD"/>
<path d="M230.742 39H239.959V46.6667H230.742V39Z" fill="#9676DD"/>
<path d="M37.1936 31.3333H46.4102V38.9999H37.1936V31.3333Z" fill="#9676DD"/>
<path d="M46.4124 31.3333H55.6289V38.9999H46.4124V31.3333Z" fill="#9676DD"/>
<path d="M55.6291 31.3333H64.8457V38.9999H55.6291V31.3333Z" fill="#9676DD"/>
<path d="M110.928 31.3333H120.145V38.9999H110.928V31.3333Z" fill="#9676DD"/>
<path d="M120.143 31.3333H129.359V38.9999H120.143V31.3333Z" fill="#9676DD"/>
<path d="M129.36 31.3333H138.576V38.9999H129.36V31.3333Z" fill="#9676DD"/>
<path d="M138.576 31.3333H147.793V38.9999H138.576V31.3333Z" fill="#9676DD"/>
<path d="M147.793 31.3333H157.01V38.9999H147.793V31.3333Z" fill="#9676DD"/>
<path d="M157.012 31.3333H166.229V38.9999H157.012V31.3333Z" fill="#9676DD"/>
<path d="M166.229 31.3333H175.445V38.9999H166.229V31.3333Z" fill="#9676DD"/>
<path d="M175.446 31.3333H184.662V38.9999H175.446V31.3333Z" fill="#9676DD"/>
<path d="M184.66 31.3333H193.877V38.9999H184.66V31.3333Z" fill="#9676DD"/>
<path d="M193.877 31.3333H203.094V38.9999H193.877V31.3333Z" fill="#9676DD"/>
<path d="M203.094 31.3333H212.311V38.9999H203.094V31.3333Z" fill="#9676DD"/>
<path d="M212.311 31.3333H221.527V38.9999H212.311V31.3333Z" fill="#9676DD"/>
<path d="M221.528 31.3333H230.744V38.9999H221.528V31.3333Z" fill="#9676DD"/>
<path d="M27.9788 23.6665H37.1953V31.3332H27.9788V23.6665Z" fill="#9676DD"/>
<path d="M37.1936 23.6665H46.4102V31.3332H37.1936V23.6665Z" fill="#9676DD"/>
<path d="M46.4124 23.6665H55.6289V31.3332H46.4124V23.6665Z" fill="#9676DD"/>
<path d="M101.711 23.6665H110.928V31.3332H101.711V23.6665Z" fill="#9676DD"/>
<path d="M110.928 23.6665H120.145V31.3332H110.928V23.6665Z" fill="#9676DD"/>
<path d="M120.143 23.6665H129.359V31.3332H120.143V23.6665Z" fill="#9676DD"/>
<path d="M129.36 23.6665H138.576V31.3332H129.36V23.6665Z" fill="#9676DD"/>
<path d="M138.576 23.6665H147.793V31.3332H138.576V23.6665Z" fill="#9676DD"/>
<path d="M147.793 23.6665H157.01V31.3332H147.793V23.6665Z" fill="#9676DD"/>
<path d="M157.012 23.6665H166.229V31.3332H157.012V23.6665Z" fill="#9676DD"/>
<path d="M166.229 23.6665H175.445V31.3332H166.229V23.6665Z" fill="#9676DD"/>
<path d="M175.446 23.6665H184.662V31.3332H175.446V23.6665Z" fill="#9676DD"/>
<path d="M184.66 23.6665H193.877V31.3332H184.66V23.6665Z" fill="#9676DD"/>
<path d="M193.877 23.6665H203.094V31.3332H193.877V23.6665Z" fill="#9676DD"/>
<path d="M203.094 23.6665H212.311V31.3332H203.094V23.6665Z" fill="#9676DD"/>
<path d="M212.311 23.6665H221.527V31.3332H212.311V23.6665Z" fill="#9676DD"/>
<path d="M18.762 16H27.9785V23.6667H18.762V16Z" fill="#9676DD"/>
<path d="M27.9788 16H37.1953V23.6667H27.9788V16Z" fill="#9676DD"/>
<path d="M37.1936 16H46.4102V23.6667H37.1936V16Z" fill="#9676DD"/>
<path d="M92.4944 16H101.711V23.6667H92.4944V16Z" fill="#9676DD"/>
<path d="M101.711 16H110.928V23.6667H101.711V16Z" fill="#9676DD"/>
<path d="M110.928 16H120.145V23.6667H110.928V16Z" fill="#9676DD"/>
<path d="M120.143 16H129.359V23.6667H120.143V16Z" fill="#9676DD"/>
<path d="M129.36 16H138.576V23.6667H129.36V16Z" fill="#9676DD"/>
<path d="M138.576 16H147.793V23.6667H138.576V16Z" fill="#9676DD"/>
<path d="M147.793 16H157.01V23.6667H147.793V16Z" fill="#9676DD"/>
<path d="M157.012 16H166.229V23.6667H157.012V16Z" fill="#9676DD"/>
<path d="M166.229 16H175.445V23.6667H166.229V16Z" fill="#9676DD"/>
<path d="M175.446 16H184.662V23.6667H175.446V16Z" fill="#9676DD"/>
<path d="M184.66 16H193.877V23.6667H184.66V16Z" fill="#9676DD"/>
<path d="M193.877 16H203.094V23.6667H193.877V16Z" fill="#9676DD"/>
<path d="M203.094 16H212.311V23.6667H203.094V16Z" fill="#9676DD"/>
<path d="M9.54516 8.3335H18.7617V16.0002H9.54516V8.3335Z" fill="#9676DD"/>
<path d="M18.762 8.3335H27.9785V16.0002H18.762V8.3335Z" fill="#9676DD"/>
<path d="M27.9788 8.3335H37.1953V16.0002H27.9788V8.3335Z" fill="#9676DD"/>
<path d="M83.2776 8.3335H92.4941V16.0002H83.2776V8.3335Z" fill="#9676DD"/>
<path d="M92.4944 8.3335H101.711V16.0002H92.4944V8.3335Z" fill="#9676DD"/>
<path d="M101.711 8.3335H110.928V16.0002H101.711V8.3335Z" fill="#9676DD"/>
<path d="M110.928 8.3335H120.145V16.0002H110.928V8.3335Z" fill="#9676DD"/>
<path d="M120.143 8.3335H129.359V16.0002H120.143V8.3335Z" fill="#9676DD"/>
<path d="M129.36 8.3335H138.576V16.0002H129.36V8.3335Z" fill="#9676DD"/>
<path d="M138.576 8.3335H147.793V16.0002H138.576V8.3335Z" fill="#9676DD"/>
<path d="M147.793 8.3335H157.01V16.0002H147.793V8.3335Z" fill="#9676DD"/>
<path d="M157.012 8.3335H166.229V16.0002H157.012V8.3335Z" fill="#9676DD"/>
<path d="M166.229 8.3335H175.445V16.0002H166.229V8.3335Z" fill="#9676DD"/>
<path d="M175.446 8.3335H184.662V16.0002H175.446V8.3335Z" fill="#9676DD"/>
<path d="M184.66 8.3335H193.877V16.0002H184.66V8.3335Z" fill="#9676DD"/>
<path d="M193.877 8.3335H203.094V16.0002H193.877V8.3335Z" fill="#9676DD"/>
<path d="M0.330319 0.666748H9.54688V8.33342H0.330319V0.666748Z" fill="#9676DD"/>
<path d="M9.54516 0.666748H18.7617V8.33342H9.54516V0.666748Z" fill="#9676DD"/>
<path d="M18.762 0.666748H27.9785V8.33342H18.762V0.666748Z" fill="#9676DD"/>
<path d="M74.0608 0.666748H83.2773V8.33342H74.0608V0.666748Z" fill="#9676DD"/>
<path d="M83.2776 0.666748H92.4941V8.33342H83.2776V0.666748Z" fill="#9676DD"/>
<path d="M92.4944 0.666748H101.711V8.33342H92.4944V0.666748Z" fill="#9676DD"/>
<path d="M101.711 0.666748H110.928V8.33342H101.711V0.666748Z" fill="#9676DD"/>
<path d="M110.928 0.666748H120.145V8.33342H110.928V0.666748Z" fill="#9676DD"/>
<path d="M120.143 0.666748H129.359V8.33342H120.143V0.666748Z" fill="#9676DD"/>
<path d="M129.36 0.666748H138.576V8.33342H129.36V0.666748Z" fill="#9676DD"/>
<path d="M138.576 0.666748H147.793V8.33342H138.576V0.666748Z" fill="#9676DD"/>
<path d="M147.793 0.666748H157.01V8.33342H147.793V0.666748Z" fill="#9676DD"/>
<path d="M157.012 0.666748H166.229V8.33342H157.012V0.666748Z" fill="#9676DD"/>
<path d="M166.229 0.666748H175.445V8.33342H166.229V0.666748Z" fill="#9676DD"/>
<path d="M175.446 0.666748H184.662V8.33342H175.446V0.666748Z" fill="#9676DD"/>
<path d="M184.66 0.666748H193.877V8.33342H184.66V0.666748Z" fill="#9676DD"/>
<path d="M138.576 115.667H147.793V123.333H138.576V115.667Z" fill="#9676DD"/>
<path d="M147.793 115.667H157.01V123.333H147.793V115.667Z" fill="#9676DD"/>
<path d="M157.012 115.667H166.229V123.333H157.012V115.667Z" fill="#9676DD"/>
<path d="M212.311 115.667H221.527V123.333H212.311V115.667Z" fill="#9676DD"/>
<path d="M221.528 115.667H230.744V123.333H221.528V115.667Z" fill="#9676DD"/>
<path d="M230.742 115.667H239.959V123.333H230.742V115.667Z" fill="#9676DD"/>
<path d="M239.957 115.667H249.174V123.333H239.957V115.667Z" fill="#9676DD"/>
<path d="M249.174 115.667H258.391V123.333H249.174V115.667Z" fill="#9676DD"/>
<path d="M258.391 115.667H267.607V123.333H258.391V115.667Z" fill="#9676DD"/>
<path d="M267.61 115.667H276.826V123.333H267.61V115.667Z" fill="#9676DD"/>
<path d="M276.826 115.667H286.043V123.333H276.826V115.667Z" fill="#9676DD"/>
<path d="M286.043 115.667H295.26V123.333H286.043V115.667Z" fill="#9676DD"/>
<path d="M295.258 115.667H304.475V123.333H295.258V115.667Z" fill="#9676DD"/>
<path d="M304.475 115.667H313.691V123.333H304.475V115.667Z" fill="#9676DD"/>
<path d="M313.692 115.667H322.908V123.333H313.692V115.667Z" fill="#9676DD"/>
<path d="M322.908 115.667H332.125V123.333H322.908V115.667Z" fill="#9676DD"/>
<path d="M129.36 108H138.576V115.667H129.36V108Z" fill="#9676DD"/>
<path d="M138.576 108H147.793V115.667H138.576V108Z" fill="#9676DD"/>
<path d="M147.793 108H157.01V115.667H147.793V108Z" fill="#9676DD"/>
<path d="M203.094 108H212.311V115.667H203.094V108Z" fill="#9676DD"/>
<path d="M212.311 108H221.527V115.667H212.311V108Z" fill="#9676DD"/>
<path d="M221.528 108H230.744V115.667H221.528V108Z" fill="#9676DD"/>
<path d="M230.742 108H239.959V115.667H230.742V108Z" fill="#9676DD"/>
<path d="M239.957 108H249.174V115.667H239.957V108Z" fill="#9676DD"/>
<path d="M249.174 108H258.391V115.667H249.174V108Z" fill="#9676DD"/>
<path d="M258.391 108H267.607V115.667H258.391V108Z" fill="#9676DD"/>
<path d="M267.61 108H276.826V115.667H267.61V108Z" fill="#9676DD"/>
<path d="M276.826 108H286.043V115.667H276.826V108Z" fill="#9676DD"/>
<path d="M286.043 108H295.26V115.667H286.043V108Z" fill="#9676DD"/>
<path d="M295.258 108H304.475V115.667H295.258V108Z" fill="#9676DD"/>
<path d="M304.475 108H313.691V115.667H304.475V108Z" fill="#9676DD"/>
<path d="M313.692 108H322.908V115.667H313.692V108Z" fill="#9676DD"/>
<path d="M120.143 100.333H129.359V108H120.143V100.333Z" fill="#9676DD"/>
<path d="M129.36 100.333H138.576V108H129.36V100.333Z" fill="#9676DD"/>
<path d="M138.576 100.333H147.793V108H138.576V100.333Z" fill="#9676DD"/>
<path d="M193.877 100.333H203.094V108H193.877V100.333Z" fill="#9676DD"/>
<path d="M203.094 100.333H212.311V108H203.094V100.333Z" fill="#9676DD"/>
<path d="M212.311 100.333H221.527V108H212.311V100.333Z" fill="#9676DD"/>
<path d="M221.528 100.333H230.744V108H221.528V100.333Z" fill="#9676DD"/>
<path d="M230.742 100.333H239.959V108H230.742V100.333Z" fill="#9676DD"/>
<path d="M239.957 100.333H249.174V108H239.957V100.333Z" fill="#9676DD"/>
<path d="M249.174 100.333H258.391V108H249.174V100.333Z" fill="#9676DD"/>
<path d="M258.391 100.333H267.607V108H258.391V100.333Z" fill="#9676DD"/>
<path d="M267.61 100.333H276.826V108H267.61V100.333Z" fill="#9676DD"/>
<path d="M276.826 100.333H286.043V108H276.826V100.333Z" fill="#9676DD"/>
<path d="M286.043 100.333H295.26V108H286.043V100.333Z" fill="#9676DD"/>
<path d="M295.258 100.333H304.475V108H295.258V100.333Z" fill="#9676DD"/>
<path d="M304.475 100.333H313.691V108H304.475V100.333Z" fill="#9676DD"/>
<path d="M110.928 92.6667H120.145V100.333H110.928V92.6667Z" fill="#9676DD"/>
<path d="M120.143 92.6667H129.359V100.333H120.143V92.6667Z" fill="#9676DD"/>
<path d="M129.36 92.6667H138.576V100.333H129.36V92.6667Z" fill="#9676DD"/>
<path d="M184.66 92.6667H193.877V100.333H184.66V92.6667Z" fill="#9676DD"/>
<path d="M193.877 92.6667H203.094V100.333H193.877V92.6667Z" fill="#9676DD"/>
<path d="M203.094 92.6667H212.311V100.333H203.094V92.6667Z" fill="#9676DD"/>
<path d="M212.311 92.6667H221.527V100.333H212.311V92.6667Z" fill="#9676DD"/>
<path d="M221.528 92.6667H230.744V100.333H221.528V92.6667Z" fill="#9676DD"/>
<path d="M230.742 92.6667H239.959V100.333H230.742V92.6667Z" fill="#9676DD"/>
<path d="M239.957 92.6667H249.174V100.333H239.957V92.6667Z" fill="#9676DD"/>
<path d="M249.174 92.6667H258.391V100.333H249.174V92.6667Z" fill="#9676DD"/>
<path d="M258.391 92.6667H267.607V100.333H258.391V92.6667Z" fill="#9676DD"/>
<path d="M267.61 92.6667H276.826V100.333H267.61V92.6667Z" fill="#9676DD"/>
<path d="M276.826 92.6667H286.043V100.333H276.826V92.6667Z" fill="#9676DD"/>
<path d="M286.043 92.6667H295.26V100.333H286.043V92.6667Z" fill="#9676DD"/>
<path d="M295.258 92.6667H304.475V100.333H295.258V92.6667Z" fill="#9676DD"/>
<path d="M101.711 85H110.928V92.6667H101.711V85Z" fill="#9676DD"/>
<path d="M110.928 85H120.145V92.6667H110.928V85Z" fill="#9676DD"/>
<path d="M120.143 85H129.359V92.6667H120.143V85Z" fill="#9676DD"/>
<path d="M175.446 85H184.662V92.6667H175.446V85Z" fill="#9676DD"/>
<path d="M184.66 85H193.877V92.6667H184.66V85Z" fill="#9676DD"/>
<path d="M193.877 85H203.094V92.6667H193.877V85Z" fill="#9676DD"/>
<path d="M203.094 85H212.311V92.6667H203.094V85Z" fill="#9676DD"/>
<path d="M212.311 85H221.527V92.6667H212.311V85Z" fill="#9676DD"/>
<path d="M221.528 85H230.744V92.6667H221.528V85Z" fill="#9676DD"/>
<path d="M230.742 85H239.959V92.6667H230.742V85Z" fill="#9676DD"/>
<path d="M239.957 85H249.174V92.6667H239.957V85Z" fill="#9676DD"/>
<path d="M249.174 85H258.391V92.6667H249.174V85Z" fill="#9676DD"/>
<path d="M258.391 85H267.607V92.6667H258.391V85Z" fill="#9676DD"/>
<path d="M267.61 85H276.826V92.6667H267.61V85Z" fill="#9676DD"/>
<path d="M276.826 85H286.043V92.6667H276.826V85Z" fill="#9676DD"/>
<path d="M286.043 85H295.26V92.6667H286.043V85Z" fill="#9676DD"/>
<path d="M92.4944 77.3333H101.711V84.9999H92.4944V77.3333Z" fill="#9676DD"/>
<path d="M101.711 77.3333H110.928V84.9999H101.711V77.3333Z" fill="#9676DD"/>
<path d="M110.928 77.3333H120.145V84.9999H110.928V77.3333Z" fill="#9676DD"/>
<path d="M166.229 77.3333H175.445V84.9999H166.229V77.3333Z" fill="#9676DD"/>
<path d="M175.446 77.3333H184.662V84.9999H175.446V77.3333Z" fill="#9676DD"/>
<path d="M184.66 77.3333H193.877V84.9999H184.66V77.3333Z" fill="#9676DD"/>
<path d="M193.877 77.3333H203.094V84.9999H193.877V77.3333Z" fill="#9676DD"/>
<path d="M203.094 77.3333H212.311V84.9999H203.094V77.3333Z" fill="#9676DD"/>
<path d="M212.311 77.3333H221.527V84.9999H212.311V77.3333Z" fill="#9676DD"/>
<path d="M221.528 77.3333H230.744V84.9999H221.528V77.3333Z" fill="#9676DD"/>
<path d="M230.742 77.3333H239.959V84.9999H230.742V77.3333Z" fill="#9676DD"/>
<path d="M239.957 77.3333H249.174V84.9999H239.957V77.3333Z" fill="#9676DD"/>
<path d="M249.174 77.3333H258.391V84.9999H249.174V77.3333Z" fill="#9676DD"/>
<path d="M258.391 77.3333H267.607V84.9999H258.391V77.3333Z" fill="#9676DD"/>
<path d="M267.61 77.3333H276.826V84.9999H267.61V77.3333Z" fill="#9676DD"/>
<path d="M276.826 77.3333H286.043V84.9999H276.826V77.3333Z" fill="#9676DD"/>
<path d="M83.2776 69.6665H92.4941V77.3332H83.2776V69.6665Z" fill="#9676DD"/>
<path d="M92.4944 69.6665H101.711V77.3332H92.4944V69.6665Z" fill="#9676DD"/>
<path d="M101.711 69.6665H110.928V77.3332H101.711V69.6665Z" fill="#9676DD"/>
<path d="M157.012 69.6665H166.229V77.3332H157.012V69.6665Z" fill="#9676DD"/>
<path d="M166.229 69.6665H175.445V77.3332H166.229V69.6665Z" fill="#9676DD"/>
<path d="M175.446 69.6665H184.662V77.3332H175.446V69.6665Z" fill="#9676DD"/>
<path d="M184.66 69.6665H193.877V77.3332H184.66V69.6665Z" fill="#9676DD"/>
<path d="M193.877 69.6665H203.094V77.3332H193.877V69.6665Z" fill="#9676DD"/>
<path d="M203.094 69.6665H212.311V77.3332H203.094V69.6665Z" fill="#9676DD"/>
<path d="M212.311 69.6665H221.527V77.3332H212.311V69.6665Z" fill="#9676DD"/>
<path d="M221.528 69.6665H230.744V77.3332H221.528V69.6665Z" fill="#9676DD"/>
<path d="M230.742 69.6665H239.959V77.3332H230.742V69.6665Z" fill="#9676DD"/>
<path d="M239.957 69.6665H249.174V77.3332H239.957V69.6665Z" fill="#9676DD"/>
<path d="M249.174 69.6665H258.391V77.3332H249.174V69.6665Z" fill="#9676DD"/>
<path d="M258.391 69.6665H267.607V77.3332H258.391V69.6665Z" fill="#9676DD"/>
<path d="M267.61 69.6665H276.826V77.3332H267.61V69.6665Z" fill="#9676DD"/>
<path d="M74.0608 62.0002H83.2773V69.6669H74.0608V62.0002Z" fill="#9676DD"/>
<path d="M83.2776 62.0002H92.4941V69.6669H83.2776V62.0002Z" fill="#9676DD"/>
<path d="M92.4944 62.0002H101.711V69.6669H92.4944V62.0002Z" fill="#9676DD"/>
<path d="M147.793 62.0002H157.01V69.6669H147.793V62.0002Z" fill="#9676DD"/>
<path d="M157.012 62.0002H166.229V69.6669H157.012V62.0002Z" fill="#9676DD"/>
<path d="M166.229 62.0002H175.445V69.6669H166.229V62.0002Z" fill="#9676DD"/>
<path d="M175.446 62.0002H184.662V69.6669H175.446V62.0002Z" fill="#9676DD"/>
<path d="M184.66 62.0002H193.877V69.6669H184.66V62.0002Z" fill="#9676DD"/>
<path d="M193.877 62.0002H203.094V69.6669H193.877V62.0002Z" fill="#9676DD"/>
<path d="M203.094 62.0002H212.311V69.6669H203.094V62.0002Z" fill="#9676DD"/>
<path d="M212.311 62.0002H221.527V69.6669H212.311V62.0002Z" fill="#9676DD"/>
<path d="M221.528 62.0002H230.744V69.6669H221.528V62.0002Z" fill="#9676DD"/>
<path d="M230.742 62.0002H239.959V69.6669H230.742V62.0002Z" fill="#9676DD"/>
<path d="M239.957 62.0002H249.174V69.6669H239.957V62.0002Z" fill="#9676DD"/>
<path d="M249.174 62.0002H258.391V69.6669H249.174V62.0002Z" fill="#9676DD"/>
<path d="M258.391 62.0002H267.607V69.6669H258.391V62.0002Z" fill="#9676DD"/>
<path d="M64.844 54.3335H74.0605V62.0002H64.844V54.3335Z" fill="#9676DD"/>
<path d="M74.0608 54.3335H83.2773V62.0002H74.0608V54.3335Z" fill="#9676DD"/>
<path d="M83.2776 54.3335H92.4941V62.0002H83.2776V54.3335Z" fill="#9676DD"/>
<path d="M138.576 54.3335H147.793V62.0002H138.576V54.3335Z" fill="#9676DD"/>
<path d="M147.793 54.3335H157.01V62.0002H147.793V54.3335Z" fill="#9676DD"/>
<path d="M157.012 54.3335H166.229V62.0002H157.012V54.3335Z" fill="#9676DD"/>
<path d="M166.229 54.3335H175.445V62.0002H166.229V54.3335Z" fill="#9676DD"/>
<path d="M175.446 54.3335H184.662V62.0002H175.446V54.3335Z" fill="#9676DD"/>
<path d="M184.66 54.3335H193.877V62.0002H184.66V54.3335Z" fill="#9676DD"/>
<path d="M193.877 54.3335H203.094V62.0002H193.877V54.3335Z" fill="#9676DD"/>
<path d="M203.094 54.3335H212.311V62.0002H203.094V54.3335Z" fill="#9676DD"/>
<path d="M212.311 54.3335H221.527V62.0002H212.311V54.3335Z" fill="#9676DD"/>
<path d="M221.528 54.3335H230.744V62.0002H221.528V54.3335Z" fill="#9676DD"/>
<path d="M230.742 54.3335H239.959V62.0002H230.742V54.3335Z" fill="#9676DD"/>
<path d="M239.957 54.3335H249.174V62.0002H239.957V54.3335Z" fill="#9676DD"/>
<path d="M249.174 54.3335H258.391V62.0002H249.174V54.3335Z" fill="#9676DD"/>
<path d="M55.6291 46.6667H64.8457V54.3334H55.6291V46.6667Z" fill="#9676DD"/>
<path d="M64.844 46.6667H74.0605V54.3334H64.844V46.6667Z" fill="#9676DD"/>
<path d="M74.0608 46.6667H83.2773V54.3334H74.0608V46.6667Z" fill="#9676DD"/>
<path d="M129.36 46.6667H138.576V54.3334H129.36V46.6667Z" fill="#9676DD"/>
<path d="M138.576 46.6667H147.793V54.3334H138.576V46.6667Z" fill="#9676DD"/>
<path d="M147.793 46.6667H157.01V54.3334H147.793V46.6667Z" fill="#9676DD"/>
<path d="M157.012 46.6667H166.229V54.3334H157.012V46.6667Z" fill="#9676DD"/>
<path d="M166.229 46.6667H175.445V54.3334H166.229V46.6667Z" fill="#9676DD"/>
<path d="M175.446 46.6667H184.662V54.3334H175.446V46.6667Z" fill="#9676DD"/>
<path d="M184.66 46.6667H193.877V54.3334H184.66V46.6667Z" fill="#9676DD"/>
<path d="M193.877 46.6667H203.094V54.3334H193.877V46.6667Z" fill="#9676DD"/>
<path d="M203.094 46.6667H212.311V54.3334H203.094V46.6667Z" fill="#9676DD"/>
<path d="M212.311 46.6667H221.527V54.3334H212.311V46.6667Z" fill="#9676DD"/>
<path d="M221.528 46.6667H230.744V54.3334H221.528V46.6667Z" fill="#9676DD"/>
<path d="M230.742 46.6667H239.959V54.3334H230.742V46.6667Z" fill="#9676DD"/>
<path d="M239.957 46.6667H249.174V54.3334H239.957V46.6667Z" fill="#9676DD"/>
<path d="M46.4124 39H55.6289V46.6667H46.4124V39Z" fill="#9676DD"/>
<path d="M55.6291 39H64.8457V46.6667H55.6291V39Z" fill="#9676DD"/>
<path d="M64.844 39H74.0605V46.6667H64.844V39Z" fill="#9676DD"/>
<path d="M120.143 39H129.359V46.6667H120.143V39Z" fill="#9676DD"/>
<path d="M129.36 39H138.576V46.6667H129.36V39Z" fill="#9676DD"/>
<path d="M138.576 39H147.793V46.6667H138.576V39Z" fill="#9676DD"/>
<path d="M147.793 39H157.01V46.6667H147.793V39Z" fill="#9676DD"/>
<path d="M157.012 39H166.229V46.6667H157.012V39Z" fill="#9676DD"/>
<path d="M166.229 39H175.445V46.6667H166.229V39Z" fill="#9676DD"/>
<path d="M175.446 39H184.662V46.6667H175.446V39Z" fill="#9676DD"/>
<path d="M184.66 39H193.877V46.6667H184.66V39Z" fill="#9676DD"/>
<path d="M193.877 39H203.094V46.6667H193.877V39Z" fill="#9676DD"/>
<path d="M203.094 39H212.311V46.6667H203.094V39Z" fill="#9676DD"/>
<path d="M212.311 39H221.527V46.6667H212.311V39Z" fill="#9676DD"/>
<path d="M221.528 39H230.744V46.6667H221.528V39Z" fill="#9676DD"/>
<path d="M230.742 39H239.959V46.6667H230.742V39Z" fill="#9676DD"/>
<path d="M37.1936 31.3333H46.4102V38.9999H37.1936V31.3333Z" fill="#9676DD"/>
<path d="M46.4124 31.3333H55.6289V38.9999H46.4124V31.3333Z" fill="#9676DD"/>
<path d="M55.6291 31.3333H64.8457V38.9999H55.6291V31.3333Z" fill="#9676DD"/>
<path d="M110.928 31.3333H120.145V38.9999H110.928V31.3333Z" fill="#9676DD"/>
<path d="M120.143 31.3333H129.359V38.9999H120.143V31.3333Z" fill="#9676DD"/>
<path d="M129.36 31.3333H138.576V38.9999H129.36V31.3333Z" fill="#9676DD"/>
<path d="M138.576 31.3333H147.793V38.9999H138.576V31.3333Z" fill="#9676DD"/>
<path d="M147.793 31.3333H157.01V38.9999H147.793V31.3333Z" fill="#9676DD"/>
<path d="M157.012 31.3333H166.229V38.9999H157.012V31.3333Z" fill="#9676DD"/>
<path d="M166.229 31.3333H175.445V38.9999H166.229V31.3333Z" fill="#9676DD"/>
<path d="M175.446 31.3333H184.662V38.9999H175.446V31.3333Z" fill="#9676DD"/>
<path d="M184.66 31.3333H193.877V38.9999H184.66V31.3333Z" fill="#9676DD"/>
<path d="M193.877 31.3333H203.094V38.9999H193.877V31.3333Z" fill="#9676DD"/>
<path d="M203.094 31.3333H212.311V38.9999H203.094V31.3333Z" fill="#9676DD"/>
<path d="M212.311 31.3333H221.527V38.9999H212.311V31.3333Z" fill="#9676DD"/>
<path d="M221.528 31.3333H230.744V38.9999H221.528V31.3333Z" fill="#9676DD"/>
<path d="M27.9788 23.6665H37.1953V31.3332H27.9788V23.6665Z" fill="#9676DD"/>
<path d="M37.1936 23.6665H46.4102V31.3332H37.1936V23.6665Z" fill="#9676DD"/>
<path d="M46.4124 23.6665H55.6289V31.3332H46.4124V23.6665Z" fill="#9676DD"/>
<path d="M101.711 23.6665H110.928V31.3332H101.711V23.6665Z" fill="#9676DD"/>
<path d="M110.928 23.6665H120.145V31.3332H110.928V23.6665Z" fill="#9676DD"/>
<path d="M120.143 23.6665H129.359V31.3332H120.143V23.6665Z" fill="#9676DD"/>
<path d="M129.36 23.6665H138.576V31.3332H129.36V23.6665Z" fill="#9676DD"/>
<path d="M138.576 23.6665H147.793V31.3332H138.576V23.6665Z" fill="#9676DD"/>
<path d="M147.793 23.6665H157.01V31.3332H147.793V23.6665Z" fill="#9676DD"/>
<path d="M157.012 23.6665H166.229V31.3332H157.012V23.6665Z" fill="#9676DD"/>
<path d="M166.229 23.6665H175.445V31.3332H166.229V23.6665Z" fill="#9676DD"/>
<path d="M175.446 23.6665H184.662V31.3332H175.446V23.6665Z" fill="#9676DD"/>
<path d="M184.66 23.6665H193.877V31.3332H184.66V23.6665Z" fill="#9676DD"/>
<path d="M193.877 23.6665H203.094V31.3332H193.877V23.6665Z" fill="#9676DD"/>
<path d="M203.094 23.6665H212.311V31.3332H203.094V23.6665Z" fill="#9676DD"/>
<path d="M212.311 23.6665H221.527V31.3332H212.311V23.6665Z" fill="#9676DD"/>
<path d="M18.762 16H27.9785V23.6667H18.762V16Z" fill="#9676DD"/>
<path d="M27.9788 16H37.1953V23.6667H27.9788V16Z" fill="#9676DD"/>
<path d="M37.1936 16H46.4102V23.6667H37.1936V16Z" fill="#9676DD"/>
<path d="M92.4944 16H101.711V23.6667H92.4944V16Z" fill="#9676DD"/>
<path d="M101.711 16H110.928V23.6667H101.711V16Z" fill="#9676DD"/>
<path d="M110.928 16H120.145V23.6667H110.928V16Z" fill="#9676DD"/>
<path d="M120.143 16H129.359V23.6667H120.143V16Z" fill="#9676DD"/>
<path d="M129.36 16H138.576V23.6667H129.36V16Z" fill="#9676DD"/>
<path d="M138.576 16H147.793V23.6667H138.576V16Z" fill="#9676DD"/>
<path d="M147.793 16H157.01V23.6667H147.793V16Z" fill="#9676DD"/>
<path d="M157.012 16H166.229V23.6667H157.012V16Z" fill="#9676DD"/>
<path d="M166.229 16H175.445V23.6667H166.229V16Z" fill="#9676DD"/>
<path d="M175.446 16H184.662V23.6667H175.446V16Z" fill="#9676DD"/>
<path d="M184.66 16H193.877V23.6667H184.66V16Z" fill="#9676DD"/>
<path d="M193.877 16H203.094V23.6667H193.877V16Z" fill="#9676DD"/>
<path d="M203.094 16H212.311V23.6667H203.094V16Z" fill="#9676DD"/>
<path d="M9.54516 8.3335H18.7617V16.0002H9.54516V8.3335Z" fill="#9676DD"/>
<path d="M18.762 8.3335H27.9785V16.0002H18.762V8.3335Z" fill="#9676DD"/>
<path d="M27.9788 8.3335H37.1953V16.0002H27.9788V8.3335Z" fill="#9676DD"/>
<path d="M83.2776 8.3335H92.4941V16.0002H83.2776V8.3335Z" fill="#9676DD"/>
<path d="M92.4944 8.3335H101.711V16.0002H92.4944V8.3335Z" fill="#9676DD"/>
<path d="M101.711 8.3335H110.928V16.0002H101.711V8.3335Z" fill="#9676DD"/>
<path d="M110.928 8.3335H120.145V16.0002H110.928V8.3335Z" fill="#9676DD"/>
<path d="M120.143 8.3335H129.359V16.0002H120.143V8.3335Z" fill="#9676DD"/>
<path d="M129.36 8.3335H138.576V16.0002H129.36V8.3335Z" fill="#9676DD"/>
<path d="M138.576 8.3335H147.793V16.0002H138.576V8.3335Z" fill="#9676DD"/>
<path d="M147.793 8.3335H157.01V16.0002H147.793V8.3335Z" fill="#9676DD"/>
<path d="M157.012 8.3335H166.229V16.0002H157.012V8.3335Z" fill="#9676DD"/>
<path d="M166.229 8.3335H175.445V16.0002H166.229V8.3335Z" fill="#9676DD"/>
<path d="M175.446 8.3335H184.662V16.0002H175.446V8.3335Z" fill="#9676DD"/>
<path d="M184.66 8.3335H193.877V16.0002H184.66V8.3335Z" fill="#9676DD"/>
<path d="M193.877 8.3335H203.094V16.0002H193.877V8.3335Z" fill="#9676DD"/>
<path d="M0.330319 0.666748H9.54688V8.33342H0.330319V0.666748Z" fill="#9676DD"/>
<path d="M9.54516 0.666748H18.7617V8.33342H9.54516V0.666748Z" fill="#9676DD"/>
<path d="M18.762 0.666748H27.9785V8.33342H18.762V0.666748Z" fill="#9676DD"/>
<path d="M74.0608 0.666748H83.2773V8.33342H74.0608V0.666748Z" fill="#9676DD"/>
<path d="M83.2776 0.666748H92.4941V8.33342H83.2776V0.666748Z" fill="#9676DD"/>
<path d="M92.4944 0.666748H101.711V8.33342H92.4944V0.666748Z" fill="#9676DD"/>
<path d="M101.711 0.666748H110.928V8.33342H101.711V0.666748Z" fill="#9676DD"/>
<path d="M110.928 0.666748H120.145V8.33342H110.928V0.666748Z" fill="#9676DD"/>
<path d="M120.143 0.666748H129.359V8.33342H120.143V0.666748Z" fill="#9676DD"/>
<path d="M129.36 0.666748H138.576V8.33342H129.36V0.666748Z" fill="#9676DD"/>
<path d="M138.576 0.666748H147.793V8.33342H138.576V0.666748Z" fill="#9676DD"/>
<path d="M147.793 0.666748H157.01V8.33342H147.793V0.666748Z" fill="#9676DD"/>
<path d="M157.012 0.666748H166.229V8.33342H157.012V0.666748Z" fill="#9676DD"/>
<path d="M166.229 0.666748H175.445V8.33342H166.229V0.666748Z" fill="#9676DD"/>
<path d="M175.446 0.666748H184.662V8.33342H175.446V0.666748Z" fill="#9676DD"/>
<path d="M184.66 0.666748H193.877V8.33342H184.66V0.666748Z" fill="#9676DD"/>
</g>
</svg>
